<?xml version="1.0" encoding="UTF-8" standalone="no"?>
<svg
   version="1.1"
   id="Layer_1"
   x="0px"
   y="0px"
   width="100%"
   viewBox="0 0 512 512"
   enable-background="new 0 0 512 512"
   xml:space="preserve"
   sodipodi:docname="person..svg"
   inkscape:version="1.3 (0e150ed6c4, 2023-07-21)"
   xmlns:inkscape="http://www.inkscape.org/namespaces/inkscape"
   xmlns:sodipodi="http://sodipodi.sourceforge.net/DTD/sodipodi-0.dtd"
   xmlns="http://www.w3.org/2000/svg"
   xmlns:svg="http://www.w3.org/2000/svg"><defs
   id="defs8" /><sodipodi:namedview
   id="namedview8"
   pagecolor="#ffffff"
   bordercolor="#000000"
   borderopacity="0.25"
   inkscape:showpageshadow="2"
   inkscape:pageopacity="0.0"
   inkscape:pagecheckerboard="0"
   inkscape:deskcolor="#d1d1d1"
   inkscape:zoom="2.2910156"
   inkscape:cx="256"
   inkscape:cy="217.58909"
   inkscape:window-width="3440"
   inkscape:window-height="1369"
   inkscape:window-x="1912"
   inkscape:window-y="-8"
   inkscape:window-maximized="1"
   inkscape:current-layer="Layer_1" />&#10;<path
   fill="#26b6d2"
   opacity="1"
   stroke="none"
   d="M 225,1.000001 C 246.02089,1 267.04178,1 288.23712,1.363762 c 1.18784,0.786725 2.16568,1.421784 3.22031,1.598376 7.08398,1.18619 14.28491,1.844014 21.26111,3.473068 24.65014,5.75621 48.21725,14.360874 70.28567,26.991178 16.24176,9.295601 31.62225,19.822018 45.23331,32.577705 10.24035,9.596833 19.79153,20.029015 28.85595,30.759636 18.05332,21.371755 31.31037,45.644905 40.85614,71.891385 6.40394,17.60794 11.3447,35.62283 13.13596,54.38056 -0.2331,26.76342 4.05003,52.42401 -1.14813,78.68909 -5.71982,28.20758 -14.63611,55.2219 -28.88953,80.42139 -15.13788,26.76321 -34.44378,49.92535 -57.63415,70.04327 -14.01511,12.15824 -29.18555,22.6333 -45.50055,31.25617 -27.24643,14.40045 -56.06955,24.26568 -86.90085,27.63684 -0.73193,0.08 -1.34424,1.25387 -2.01236,1.91757 -21.02091,0 -42.04179,0 -63.23685,-0.36322 -1.0207,-0.78448 -1.83096,-1.4577 -2.71974,-1.58572 -5.33824,-0.76902 -10.78192,-1.01444 -16.03,-2.16584 -26.32614,-5.77578 -51.52931,-14.53759 -75.1338,-27.83511 C 105.09963,465.96365 81.914932,446.68674 61.883312,423.44089 5.617538,358.14688 5.3501801,292.55855 0.56351236,287.69054 -0.23090235,257.96147 0.17587984,233.16963 5.978463,204.25447 11.409798,176.87656 21.38221,151.18204 35.490547,127.19403 50.190899,102.19944 68.827972,80.415443 90.896263,61.520267 104.85702,49.566879 119.86478,39.158329 136.04213,30.587786 163.30727,16.143097 192.16646,6.391796 222.98366,2.917976 223.71851,2.835143 224.33063,1.663696 225,1.000001 M 464.30362,351.83365 c 13.03055,-28.19727 19.88034,-57.89032 20.59045,-88.87799 C 485.98132,215.5124 473.42758,171.8665 447.66449,131.94128 390.77066,43.772705 275.89499,5.894824 177.80269,43.114674 69.517937,84.201927 9.566062,195.49774 34.907307,308.38843 60.644512,423.04303 173.60574,500.77655 289.67291,482.50149 370.16028,469.82858 428.08044,425.6066 464.30362,351.83365 Z"
   id="path1"
   sodipodi:nodetypes="ccsssssscsssssccsssscsssssccsssssc" />&#10;&#10;&#10;&#10;&#10;<path
   fill="#FCFEFE"
   opacity="1.000000"
   stroke="none"
   d=" M464.164185,352.185852   C428.080444,425.606598 370.160278,469.828583 289.672913,482.501495   C173.605743,500.776550 60.644512,423.043030 34.907307,308.388428   C9.566062,195.497742 69.517937,84.201927 177.802689,43.114674   C275.894989,5.894824 390.770660,43.772705 447.664490,131.941284   C473.427582,171.866501 485.981323,215.512405 484.894073,262.955658   C484.183960,293.943329 477.334167,323.636383 464.164185,352.185852  M63.684666,343.769379   C102.808243,431.919159 198.621063,482.666656 294.037659,465.776398   C417.607117,443.902710 495.298981,319.272980 460.718048,198.395355   C428.182434,84.667007 307.513245,19.444555 194.392151,54.444538   C73.134872,91.961876 12.073533,226.438309 63.684666,343.769379  z"
   id="path6" />&#10;<path
   fill="#26B6D2"
   opacity="1.000000"
   stroke="none"
   d=" M63.503349,343.435944   C12.073533,226.438309 73.134872,91.961876 194.392151,54.444538   C307.513245,19.444555 428.182434,84.667007 460.718048,198.395355   C495.298981,319.272980 417.607117,443.902710 294.037659,465.776398   C198.621063,482.666656 102.808243,431.919159 63.503349,343.435944  M173.613708,269.075348   C142.174225,288.061829 128.384888,316.063965 134.994598,347.808533   C216.328903,347.808533 297.708313,347.808533 379.690765,347.808533   C379.690765,341.933105 379.504608,336.304596 379.726959,330.692291   C380.308380,316.015991 375.418671,303.199890 366.583618,291.785339   C352.639618,273.770203 333.978485,263.156708 312.058350,258.083160   C304.520355,256.338470 296.779480,255.470413 288.895020,254.162674   C288.895020,249.240433 289.045044,244.409531 288.837982,239.593979   C288.716431,236.767532 289.740692,235.194336 292.111694,233.599884   C309.620148,221.825745 319.506500,205.439819 321.317932,184.306747   C323.793365,155.427216 305.681915,127.921043 277.923981,118.441399   C250.173141,108.964180 218.875778,119.602325 203.192963,143.842911   C183.460205,174.343384 191.543579,213.485855 221.681519,233.604126   C222.967804,234.462784 224.828232,235.754807 224.893967,236.930344   C225.223907,242.831039 225.045212,248.760193 225.045212,254.723450   C206.633255,255.920074 189.769852,259.917450 173.613708,269.075348  z"
   id="path7" />&#10;<path
   fill="#FEFFFF"
   opacity="1.000000"
   stroke="none"
   d=" M173.942657,268.914856   C189.769852,259.917450 206.633255,255.920074 225.045212,254.723450   C225.045212,248.760193 225.223907,242.831039 224.893967,236.930344   C224.828232,235.754807 222.967804,234.462784 221.681519,233.604126   C191.543579,213.485855 183.460205,174.343384 203.192963,143.842911   C218.875778,119.602325 250.173141,108.964180 277.923981,118.441399   C305.681915,127.921043 323.793365,155.427216 321.317932,184.306747   C319.506500,205.439819 309.620148,221.825745 292.111694,233.599884   C289.740692,235.194336 288.716431,236.767532 288.837982,239.593979   C289.045044,244.409531 288.895020,249.240433 288.895020,254.162674   C296.779480,255.470413 304.520355,256.338470 312.058350,258.083160   C333.978485,263.156708 352.639618,273.770203 366.583618,291.785339   C375.418671,303.199890 380.308380,316.015991 379.726959,330.692291   C379.504608,336.304596 379.690765,341.933105 379.690765,347.808533   C297.708313,347.808533 216.328903,347.808533 134.994598,347.808533   C128.384888,316.063965 142.174225,288.061829 173.942657,268.914856  z"
   id="path8" />&#10;</svg>
